<mxfile host="app.diagrams.net" modified="2023-04-15T14:20:16.704Z" agent="Mozilla/5.0 (Windows NT 10.0; Win64; x64; rv:109.0) Gecko/20100101 Firefox/112.0" etag="ZPELRRfYW_0-4HmVG2xY" version="21.1.8" type="github">
  <diagram name="Page-1" id="TFeiLpqOvTcneDsfJnWh">
    <mxGraphModel dx="1687" dy="887" grid="1" gridSize="10" guides="1" tooltips="1" connect="1" arrows="1" fold="1" page="1" pageScale="1" pageWidth="1169" pageHeight="827" math="0" shadow="0">
      <root>
        <mxCell id="0" />
        <mxCell id="1" parent="0" />
        <mxCell id="-rIALQsXQZc5Qd0rrOYO-28" value="" style="rounded=0;whiteSpace=wrap;html=1;fillColor=#f5f5f5;fontColor=#333333;strokeColor=#666666;" parent="1" vertex="1">
          <mxGeometry x="10" width="1150" height="90" as="geometry" />
        </mxCell>
        <mxCell id="-rIALQsXQZc5Qd0rrOYO-91" value="" style="shape=table;startSize=0;container=1;collapsible=0;childLayout=tableLayout;fontSize=16;columnLines=0;rowLines=1;swimlaneHead=1;swimlaneBody=1;horizontal=1;top=1;left=0;right=0;" parent="1" vertex="1">
          <mxGeometry x="180" y="110" width="810" height="630" as="geometry" />
        </mxCell>
        <mxCell id="-rIALQsXQZc5Qd0rrOYO-92" value="" style="shape=tableRow;horizontal=0;startSize=0;swimlaneHead=0;swimlaneBody=0;strokeColor=inherit;top=0;left=0;bottom=0;right=0;collapsible=0;dropTarget=0;fillColor=none;points=[[0,0.5],[1,0.5]];portConstraint=eastwest;fontSize=16;" parent="-rIALQsXQZc5Qd0rrOYO-91" vertex="1">
          <mxGeometry width="810" height="49" as="geometry" />
        </mxCell>
        <mxCell id="-rIALQsXQZc5Qd0rrOYO-93" value="Titre&amp;nbsp;" style="shape=partialRectangle;html=1;whiteSpace=wrap;connectable=0;strokeColor=inherit;overflow=hidden;fillColor=none;top=0;left=0;bottom=0;right=0;pointerEvents=1;fontSize=16;strokeWidth=0;" parent="-rIALQsXQZc5Qd0rrOYO-92" vertex="1">
          <mxGeometry width="195" height="49" as="geometry">
            <mxRectangle width="195" height="49" as="alternateBounds" />
          </mxGeometry>
        </mxCell>
        <mxCell id="-rIALQsXQZc5Qd0rrOYO-94" value="Réalisateur" style="shape=partialRectangle;html=1;whiteSpace=wrap;connectable=0;strokeColor=inherit;overflow=hidden;fillColor=none;top=0;left=0;bottom=0;right=0;pointerEvents=1;fontSize=16;" parent="-rIALQsXQZc5Qd0rrOYO-92" vertex="1">
          <mxGeometry x="195" width="210" height="49" as="geometry">
            <mxRectangle width="210" height="49" as="alternateBounds" />
          </mxGeometry>
        </mxCell>
        <mxCell id="-rIALQsXQZc5Qd0rrOYO-95" value="Genre" style="shape=partialRectangle;html=1;whiteSpace=wrap;connectable=0;strokeColor=inherit;overflow=hidden;fillColor=none;top=0;left=0;bottom=0;right=0;pointerEvents=1;fontSize=16;" parent="-rIALQsXQZc5Qd0rrOYO-92" vertex="1">
          <mxGeometry x="405" width="203" height="49" as="geometry">
            <mxRectangle width="203" height="49" as="alternateBounds" />
          </mxGeometry>
        </mxCell>
        <mxCell id="-rIALQsXQZc5Qd0rrOYO-107" value="Année" style="shape=partialRectangle;html=1;whiteSpace=wrap;connectable=0;strokeColor=inherit;overflow=hidden;fillColor=none;top=0;left=0;bottom=0;right=0;pointerEvents=1;fontSize=16;" parent="-rIALQsXQZc5Qd0rrOYO-92" vertex="1">
          <mxGeometry x="608" width="202" height="49" as="geometry">
            <mxRectangle width="202" height="49" as="alternateBounds" />
          </mxGeometry>
        </mxCell>
        <mxCell id="-rIALQsXQZc5Qd0rrOYO-96" value="" style="shape=tableRow;horizontal=0;startSize=0;swimlaneHead=0;swimlaneBody=0;strokeColor=inherit;top=0;left=0;bottom=0;right=0;collapsible=0;dropTarget=0;fillColor=none;points=[[0,0.5],[1,0.5]];portConstraint=eastwest;fontSize=16;" parent="-rIALQsXQZc5Qd0rrOYO-91" vertex="1">
          <mxGeometry y="49" width="810" height="53" as="geometry" />
        </mxCell>
        <mxCell id="-rIALQsXQZc5Qd0rrOYO-97" value="" style="shape=partialRectangle;html=1;whiteSpace=wrap;connectable=0;overflow=hidden;top=0;left=0;bottom=0;right=0;pointerEvents=1;fontSize=16;strokeWidth=0;fillColor=none;strokeColor=inherit;" parent="-rIALQsXQZc5Qd0rrOYO-96" vertex="1">
          <mxGeometry width="195" height="53" as="geometry">
            <mxRectangle width="195" height="53" as="alternateBounds" />
          </mxGeometry>
        </mxCell>
        <mxCell id="-rIALQsXQZc5Qd0rrOYO-98" value="" style="shape=partialRectangle;html=1;whiteSpace=wrap;connectable=0;strokeColor=inherit;overflow=hidden;fillColor=none;top=0;left=0;bottom=0;right=0;pointerEvents=1;fontSize=16;" parent="-rIALQsXQZc5Qd0rrOYO-96" vertex="1">
          <mxGeometry x="195" width="210" height="53" as="geometry">
            <mxRectangle width="210" height="53" as="alternateBounds" />
          </mxGeometry>
        </mxCell>
        <mxCell id="-rIALQsXQZc5Qd0rrOYO-99" value="" style="shape=partialRectangle;html=1;whiteSpace=wrap;connectable=0;strokeColor=inherit;overflow=hidden;fillColor=none;top=0;left=0;bottom=0;right=0;pointerEvents=1;fontSize=16;" parent="-rIALQsXQZc5Qd0rrOYO-96" vertex="1">
          <mxGeometry x="405" width="203" height="53" as="geometry">
            <mxRectangle width="203" height="53" as="alternateBounds" />
          </mxGeometry>
        </mxCell>
        <mxCell id="-rIALQsXQZc5Qd0rrOYO-108" style="shape=partialRectangle;html=1;whiteSpace=wrap;connectable=0;strokeColor=inherit;overflow=hidden;fillColor=none;top=0;left=0;bottom=0;right=0;pointerEvents=1;fontSize=16;" parent="-rIALQsXQZc5Qd0rrOYO-96" vertex="1">
          <mxGeometry x="608" width="202" height="53" as="geometry">
            <mxRectangle width="202" height="53" as="alternateBounds" />
          </mxGeometry>
        </mxCell>
        <mxCell id="-rIALQsXQZc5Qd0rrOYO-100" value="" style="shape=tableRow;horizontal=0;startSize=0;swimlaneHead=0;swimlaneBody=1;strokeColor=inherit;top=0;left=0;bottom=0;right=0;collapsible=0;dropTarget=0;fillColor=none;points=[[0,0.5],[1,0.5]];portConstraint=eastwest;fontSize=16;allowArrows=1;" parent="-rIALQsXQZc5Qd0rrOYO-91" vertex="1">
          <mxGeometry y="102" width="810" height="60" as="geometry" />
        </mxCell>
        <mxCell id="-rIALQsXQZc5Qd0rrOYO-101" value="" style="shape=partialRectangle;html=1;whiteSpace=wrap;connectable=0;overflow=hidden;top=0;left=0;bottom=0;right=0;pointerEvents=1;fontSize=16;strokeWidth=0;fillColor=#f5f5f5;strokeColor=#666666;fontColor=#333333;" parent="-rIALQsXQZc5Qd0rrOYO-100" vertex="1">
          <mxGeometry width="195" height="60" as="geometry">
            <mxRectangle width="195" height="60" as="alternateBounds" />
          </mxGeometry>
        </mxCell>
        <mxCell id="-rIALQsXQZc5Qd0rrOYO-102" value="" style="shape=partialRectangle;html=1;whiteSpace=wrap;connectable=0;strokeColor=#666666;overflow=hidden;fillColor=#f5f5f5;top=0;left=0;bottom=0;right=0;pointerEvents=1;fontSize=16;fontColor=#333333;" parent="-rIALQsXQZc5Qd0rrOYO-100" vertex="1">
          <mxGeometry x="195" width="210" height="60" as="geometry">
            <mxRectangle width="210" height="60" as="alternateBounds" />
          </mxGeometry>
        </mxCell>
        <mxCell id="-rIALQsXQZc5Qd0rrOYO-103" value="" style="shape=partialRectangle;html=1;whiteSpace=wrap;connectable=0;strokeColor=#666666;overflow=hidden;fillColor=#f5f5f5;top=0;left=0;bottom=0;right=0;pointerEvents=1;fontSize=16;fontColor=#333333;" parent="-rIALQsXQZc5Qd0rrOYO-100" vertex="1">
          <mxGeometry x="405" width="203" height="60" as="geometry">
            <mxRectangle width="203" height="60" as="alternateBounds" />
          </mxGeometry>
        </mxCell>
        <mxCell id="-rIALQsXQZc5Qd0rrOYO-109" style="shape=partialRectangle;html=1;whiteSpace=wrap;connectable=0;strokeColor=#666666;overflow=hidden;fillColor=#f5f5f5;top=0;left=0;bottom=0;right=0;pointerEvents=1;fontSize=16;fontColor=#333333;" parent="-rIALQsXQZc5Qd0rrOYO-100" vertex="1">
          <mxGeometry x="608" width="202" height="60" as="geometry">
            <mxRectangle width="202" height="60" as="alternateBounds" />
          </mxGeometry>
        </mxCell>
        <mxCell id="-rIALQsXQZc5Qd0rrOYO-148" style="shape=tableRow;horizontal=0;startSize=0;swimlaneHead=0;swimlaneBody=0;strokeColor=inherit;top=0;left=0;bottom=0;right=0;collapsible=0;dropTarget=0;fillColor=none;points=[[0,0.5],[1,0.5]];portConstraint=eastwest;fontSize=16;" parent="-rIALQsXQZc5Qd0rrOYO-91" vertex="1">
          <mxGeometry y="162" width="810" height="58" as="geometry" />
        </mxCell>
        <mxCell id="-rIALQsXQZc5Qd0rrOYO-149" style="shape=partialRectangle;html=1;whiteSpace=wrap;connectable=0;overflow=hidden;top=0;left=0;bottom=0;right=0;pointerEvents=1;fontSize=16;strokeWidth=0;fillColor=none;strokeColor=inherit;" parent="-rIALQsXQZc5Qd0rrOYO-148" vertex="1">
          <mxGeometry width="195" height="58" as="geometry">
            <mxRectangle width="195" height="58" as="alternateBounds" />
          </mxGeometry>
        </mxCell>
        <mxCell id="-rIALQsXQZc5Qd0rrOYO-150" style="shape=partialRectangle;html=1;whiteSpace=wrap;connectable=0;strokeColor=inherit;overflow=hidden;fillColor=none;top=0;left=0;bottom=0;right=0;pointerEvents=1;fontSize=16;" parent="-rIALQsXQZc5Qd0rrOYO-148" vertex="1">
          <mxGeometry x="195" width="210" height="58" as="geometry">
            <mxRectangle width="210" height="58" as="alternateBounds" />
          </mxGeometry>
        </mxCell>
        <mxCell id="-rIALQsXQZc5Qd0rrOYO-151" style="shape=partialRectangle;html=1;whiteSpace=wrap;connectable=0;strokeColor=inherit;overflow=hidden;fillColor=none;top=0;left=0;bottom=0;right=0;pointerEvents=1;fontSize=16;" parent="-rIALQsXQZc5Qd0rrOYO-148" vertex="1">
          <mxGeometry x="405" width="203" height="58" as="geometry">
            <mxRectangle width="203" height="58" as="alternateBounds" />
          </mxGeometry>
        </mxCell>
        <mxCell id="-rIALQsXQZc5Qd0rrOYO-152" style="shape=partialRectangle;html=1;whiteSpace=wrap;connectable=0;strokeColor=inherit;overflow=hidden;fillColor=none;top=0;left=0;bottom=0;right=0;pointerEvents=1;fontSize=16;" parent="-rIALQsXQZc5Qd0rrOYO-148" vertex="1">
          <mxGeometry x="608" width="202" height="58" as="geometry">
            <mxRectangle width="202" height="58" as="alternateBounds" />
          </mxGeometry>
        </mxCell>
        <mxCell id="-rIALQsXQZc5Qd0rrOYO-143" style="shape=tableRow;horizontal=0;startSize=0;swimlaneHead=0;swimlaneBody=0;strokeColor=inherit;top=0;left=0;bottom=0;right=0;collapsible=0;dropTarget=0;fillColor=none;points=[[0,0.5],[1,0.5]];portConstraint=eastwest;fontSize=16;" parent="-rIALQsXQZc5Qd0rrOYO-91" vertex="1">
          <mxGeometry y="220" width="810" height="57" as="geometry" />
        </mxCell>
        <mxCell id="-rIALQsXQZc5Qd0rrOYO-144" style="shape=partialRectangle;html=1;whiteSpace=wrap;connectable=0;overflow=hidden;top=0;left=0;bottom=0;right=0;pointerEvents=1;fontSize=16;strokeWidth=0;fillColor=#f5f5f5;strokeColor=#666666;fontColor=#333333;" parent="-rIALQsXQZc5Qd0rrOYO-143" vertex="1">
          <mxGeometry width="195" height="57" as="geometry">
            <mxRectangle width="195" height="57" as="alternateBounds" />
          </mxGeometry>
        </mxCell>
        <mxCell id="-rIALQsXQZc5Qd0rrOYO-145" style="shape=partialRectangle;html=1;whiteSpace=wrap;connectable=0;strokeColor=#666666;overflow=hidden;fillColor=#f5f5f5;top=0;left=0;bottom=0;right=0;pointerEvents=1;fontSize=16;fontColor=#333333;" parent="-rIALQsXQZc5Qd0rrOYO-143" vertex="1">
          <mxGeometry x="195" width="210" height="57" as="geometry">
            <mxRectangle width="210" height="57" as="alternateBounds" />
          </mxGeometry>
        </mxCell>
        <mxCell id="-rIALQsXQZc5Qd0rrOYO-146" style="shape=partialRectangle;html=1;whiteSpace=wrap;connectable=0;strokeColor=#666666;overflow=hidden;fillColor=#f5f5f5;top=0;left=0;bottom=0;right=0;pointerEvents=1;fontSize=16;fontColor=#333333;" parent="-rIALQsXQZc5Qd0rrOYO-143" vertex="1">
          <mxGeometry x="405" width="203" height="57" as="geometry">
            <mxRectangle width="203" height="57" as="alternateBounds" />
          </mxGeometry>
        </mxCell>
        <mxCell id="-rIALQsXQZc5Qd0rrOYO-147" style="shape=partialRectangle;html=1;whiteSpace=wrap;connectable=0;strokeColor=#666666;overflow=hidden;fillColor=#f5f5f5;top=0;left=0;bottom=0;right=0;pointerEvents=1;fontSize=16;fontColor=#333333;" parent="-rIALQsXQZc5Qd0rrOYO-143" vertex="1">
          <mxGeometry x="608" width="202" height="57" as="geometry">
            <mxRectangle width="202" height="57" as="alternateBounds" />
          </mxGeometry>
        </mxCell>
        <mxCell id="-rIALQsXQZc5Qd0rrOYO-138" style="shape=tableRow;horizontal=0;startSize=0;swimlaneHead=0;swimlaneBody=0;strokeColor=inherit;top=0;left=0;bottom=0;right=0;collapsible=0;dropTarget=0;fillColor=none;points=[[0,0.5],[1,0.5]];portConstraint=eastwest;fontSize=16;" parent="-rIALQsXQZc5Qd0rrOYO-91" vertex="1">
          <mxGeometry y="277" width="810" height="59" as="geometry" />
        </mxCell>
        <mxCell id="-rIALQsXQZc5Qd0rrOYO-139" style="shape=partialRectangle;html=1;whiteSpace=wrap;connectable=0;overflow=hidden;top=0;left=0;bottom=0;right=0;pointerEvents=1;fontSize=16;strokeWidth=0;fillColor=none;strokeColor=inherit;" parent="-rIALQsXQZc5Qd0rrOYO-138" vertex="1">
          <mxGeometry width="195" height="59" as="geometry">
            <mxRectangle width="195" height="59" as="alternateBounds" />
          </mxGeometry>
        </mxCell>
        <mxCell id="-rIALQsXQZc5Qd0rrOYO-140" style="shape=partialRectangle;html=1;whiteSpace=wrap;connectable=0;strokeColor=inherit;overflow=hidden;fillColor=none;top=0;left=0;bottom=0;right=0;pointerEvents=1;fontSize=16;" parent="-rIALQsXQZc5Qd0rrOYO-138" vertex="1">
          <mxGeometry x="195" width="210" height="59" as="geometry">
            <mxRectangle width="210" height="59" as="alternateBounds" />
          </mxGeometry>
        </mxCell>
        <mxCell id="-rIALQsXQZc5Qd0rrOYO-141" style="shape=partialRectangle;html=1;whiteSpace=wrap;connectable=0;strokeColor=inherit;overflow=hidden;fillColor=none;top=0;left=0;bottom=0;right=0;pointerEvents=1;fontSize=16;" parent="-rIALQsXQZc5Qd0rrOYO-138" vertex="1">
          <mxGeometry x="405" width="203" height="59" as="geometry">
            <mxRectangle width="203" height="59" as="alternateBounds" />
          </mxGeometry>
        </mxCell>
        <mxCell id="-rIALQsXQZc5Qd0rrOYO-142" style="shape=partialRectangle;html=1;whiteSpace=wrap;connectable=0;strokeColor=inherit;overflow=hidden;fillColor=none;top=0;left=0;bottom=0;right=0;pointerEvents=1;fontSize=16;" parent="-rIALQsXQZc5Qd0rrOYO-138" vertex="1">
          <mxGeometry x="608" width="202" height="59" as="geometry">
            <mxRectangle width="202" height="59" as="alternateBounds" />
          </mxGeometry>
        </mxCell>
        <mxCell id="-rIALQsXQZc5Qd0rrOYO-133" style="shape=tableRow;horizontal=0;startSize=0;swimlaneHead=0;swimlaneBody=0;strokeColor=#666666;top=0;left=0;bottom=0;right=0;collapsible=0;dropTarget=0;fillColor=#f5f5f5;points=[[0,0.5],[1,0.5]];portConstraint=eastwest;fontSize=16;fontColor=#333333;" parent="-rIALQsXQZc5Qd0rrOYO-91" vertex="1">
          <mxGeometry y="336" width="810" height="60" as="geometry" />
        </mxCell>
        <mxCell id="-rIALQsXQZc5Qd0rrOYO-134" style="shape=partialRectangle;html=1;whiteSpace=wrap;connectable=0;overflow=hidden;top=0;left=0;bottom=0;right=0;pointerEvents=1;fontSize=16;strokeWidth=0;fillColor=none;strokeColor=inherit;" parent="-rIALQsXQZc5Qd0rrOYO-133" vertex="1">
          <mxGeometry width="195" height="60" as="geometry">
            <mxRectangle width="195" height="60" as="alternateBounds" />
          </mxGeometry>
        </mxCell>
        <mxCell id="-rIALQsXQZc5Qd0rrOYO-135" style="shape=partialRectangle;html=1;whiteSpace=wrap;connectable=0;strokeColor=inherit;overflow=hidden;fillColor=none;top=0;left=0;bottom=0;right=0;pointerEvents=1;fontSize=16;" parent="-rIALQsXQZc5Qd0rrOYO-133" vertex="1">
          <mxGeometry x="195" width="210" height="60" as="geometry">
            <mxRectangle width="210" height="60" as="alternateBounds" />
          </mxGeometry>
        </mxCell>
        <mxCell id="-rIALQsXQZc5Qd0rrOYO-136" style="shape=partialRectangle;html=1;whiteSpace=wrap;connectable=0;strokeColor=inherit;overflow=hidden;fillColor=none;top=0;left=0;bottom=0;right=0;pointerEvents=1;fontSize=16;" parent="-rIALQsXQZc5Qd0rrOYO-133" vertex="1">
          <mxGeometry x="405" width="203" height="60" as="geometry">
            <mxRectangle width="203" height="60" as="alternateBounds" />
          </mxGeometry>
        </mxCell>
        <mxCell id="-rIALQsXQZc5Qd0rrOYO-137" style="shape=partialRectangle;html=1;whiteSpace=wrap;connectable=0;strokeColor=inherit;overflow=hidden;fillColor=none;top=0;left=0;bottom=0;right=0;pointerEvents=1;fontSize=16;" parent="-rIALQsXQZc5Qd0rrOYO-133" vertex="1">
          <mxGeometry x="608" width="202" height="60" as="geometry">
            <mxRectangle width="202" height="60" as="alternateBounds" />
          </mxGeometry>
        </mxCell>
        <mxCell id="-rIALQsXQZc5Qd0rrOYO-113" style="shape=tableRow;horizontal=0;startSize=0;swimlaneHead=0;swimlaneBody=0;strokeColor=inherit;top=0;left=0;bottom=0;right=0;collapsible=0;dropTarget=0;fillColor=none;points=[[0,0.5],[1,0.5]];portConstraint=eastwest;fontSize=16;" parent="-rIALQsXQZc5Qd0rrOYO-91" vertex="1">
          <mxGeometry y="396" width="810" height="59" as="geometry" />
        </mxCell>
        <mxCell id="-rIALQsXQZc5Qd0rrOYO-114" style="shape=partialRectangle;html=1;whiteSpace=wrap;connectable=0;overflow=hidden;top=0;left=0;bottom=0;right=0;pointerEvents=1;fontSize=16;strokeWidth=0;fillColor=none;strokeColor=inherit;" parent="-rIALQsXQZc5Qd0rrOYO-113" vertex="1">
          <mxGeometry width="195" height="59" as="geometry">
            <mxRectangle width="195" height="59" as="alternateBounds" />
          </mxGeometry>
        </mxCell>
        <mxCell id="-rIALQsXQZc5Qd0rrOYO-115" style="shape=partialRectangle;html=1;whiteSpace=wrap;connectable=0;strokeColor=inherit;overflow=hidden;fillColor=none;top=0;left=0;bottom=0;right=0;pointerEvents=1;fontSize=16;" parent="-rIALQsXQZc5Qd0rrOYO-113" vertex="1">
          <mxGeometry x="195" width="210" height="59" as="geometry">
            <mxRectangle width="210" height="59" as="alternateBounds" />
          </mxGeometry>
        </mxCell>
        <mxCell id="-rIALQsXQZc5Qd0rrOYO-116" style="shape=partialRectangle;html=1;whiteSpace=wrap;connectable=0;strokeColor=inherit;overflow=hidden;fillColor=none;top=0;left=0;bottom=0;right=0;pointerEvents=1;fontSize=16;" parent="-rIALQsXQZc5Qd0rrOYO-113" vertex="1">
          <mxGeometry x="405" width="203" height="59" as="geometry">
            <mxRectangle width="203" height="59" as="alternateBounds" />
          </mxGeometry>
        </mxCell>
        <mxCell id="-rIALQsXQZc5Qd0rrOYO-117" style="shape=partialRectangle;html=1;whiteSpace=wrap;connectable=0;strokeColor=inherit;overflow=hidden;fillColor=none;top=0;left=0;bottom=0;right=0;pointerEvents=1;fontSize=16;" parent="-rIALQsXQZc5Qd0rrOYO-113" vertex="1">
          <mxGeometry x="608" width="202" height="59" as="geometry">
            <mxRectangle width="202" height="59" as="alternateBounds" />
          </mxGeometry>
        </mxCell>
        <mxCell id="-rIALQsXQZc5Qd0rrOYO-118" style="shape=tableRow;horizontal=0;startSize=0;swimlaneHead=0;swimlaneBody=0;strokeColor=inherit;top=0;left=0;bottom=0;right=0;collapsible=0;dropTarget=0;fillColor=none;points=[[0,0.5],[1,0.5]];portConstraint=eastwest;fontSize=16;" parent="-rIALQsXQZc5Qd0rrOYO-91" vertex="1">
          <mxGeometry y="455" width="810" height="58" as="geometry" />
        </mxCell>
        <mxCell id="-rIALQsXQZc5Qd0rrOYO-119" style="shape=partialRectangle;html=1;whiteSpace=wrap;connectable=0;overflow=hidden;top=0;left=0;bottom=0;right=0;pointerEvents=1;fontSize=16;strokeWidth=0;fillColor=#f5f5f5;strokeColor=#666666;fontColor=#333333;" parent="-rIALQsXQZc5Qd0rrOYO-118" vertex="1">
          <mxGeometry width="195" height="58" as="geometry">
            <mxRectangle width="195" height="58" as="alternateBounds" />
          </mxGeometry>
        </mxCell>
        <mxCell id="-rIALQsXQZc5Qd0rrOYO-120" style="shape=partialRectangle;html=1;whiteSpace=wrap;connectable=0;strokeColor=#666666;overflow=hidden;fillColor=#f5f5f5;top=0;left=0;bottom=0;right=0;pointerEvents=1;fontSize=16;fontColor=#333333;" parent="-rIALQsXQZc5Qd0rrOYO-118" vertex="1">
          <mxGeometry x="195" width="210" height="58" as="geometry">
            <mxRectangle width="210" height="58" as="alternateBounds" />
          </mxGeometry>
        </mxCell>
        <mxCell id="-rIALQsXQZc5Qd0rrOYO-121" style="shape=partialRectangle;html=1;whiteSpace=wrap;connectable=0;strokeColor=#666666;overflow=hidden;fillColor=#f5f5f5;top=0;left=0;bottom=0;right=0;pointerEvents=1;fontSize=16;fontColor=#333333;" parent="-rIALQsXQZc5Qd0rrOYO-118" vertex="1">
          <mxGeometry x="405" width="203" height="58" as="geometry">
            <mxRectangle width="203" height="58" as="alternateBounds" />
          </mxGeometry>
        </mxCell>
        <mxCell id="-rIALQsXQZc5Qd0rrOYO-122" style="shape=partialRectangle;html=1;whiteSpace=wrap;connectable=0;strokeColor=#666666;overflow=hidden;fillColor=#f5f5f5;top=0;left=0;bottom=0;right=0;pointerEvents=1;fontSize=16;fontColor=#333333;" parent="-rIALQsXQZc5Qd0rrOYO-118" vertex="1">
          <mxGeometry x="608" width="202" height="58" as="geometry">
            <mxRectangle width="202" height="58" as="alternateBounds" />
          </mxGeometry>
        </mxCell>
        <mxCell id="-rIALQsXQZc5Qd0rrOYO-123" style="shape=tableRow;horizontal=0;startSize=0;swimlaneHead=0;swimlaneBody=0;strokeColor=inherit;top=0;left=0;bottom=0;right=0;collapsible=0;dropTarget=0;fillColor=none;points=[[0,0.5],[1,0.5]];portConstraint=eastwest;fontSize=16;" parent="-rIALQsXQZc5Qd0rrOYO-91" vertex="1">
          <mxGeometry y="513" width="810" height="60" as="geometry" />
        </mxCell>
        <mxCell id="-rIALQsXQZc5Qd0rrOYO-124" style="shape=partialRectangle;html=1;whiteSpace=wrap;connectable=0;overflow=hidden;top=0;left=0;bottom=0;right=0;pointerEvents=1;fontSize=16;strokeWidth=0;fillColor=none;strokeColor=inherit;" parent="-rIALQsXQZc5Qd0rrOYO-123" vertex="1">
          <mxGeometry width="195" height="60" as="geometry">
            <mxRectangle width="195" height="60" as="alternateBounds" />
          </mxGeometry>
        </mxCell>
        <mxCell id="-rIALQsXQZc5Qd0rrOYO-125" style="shape=partialRectangle;html=1;whiteSpace=wrap;connectable=0;strokeColor=inherit;overflow=hidden;fillColor=none;top=0;left=0;bottom=0;right=0;pointerEvents=1;fontSize=16;" parent="-rIALQsXQZc5Qd0rrOYO-123" vertex="1">
          <mxGeometry x="195" width="210" height="60" as="geometry">
            <mxRectangle width="210" height="60" as="alternateBounds" />
          </mxGeometry>
        </mxCell>
        <mxCell id="-rIALQsXQZc5Qd0rrOYO-126" style="shape=partialRectangle;html=1;whiteSpace=wrap;connectable=0;strokeColor=inherit;overflow=hidden;fillColor=none;top=0;left=0;bottom=0;right=0;pointerEvents=1;fontSize=16;" parent="-rIALQsXQZc5Qd0rrOYO-123" vertex="1">
          <mxGeometry x="405" width="203" height="60" as="geometry">
            <mxRectangle width="203" height="60" as="alternateBounds" />
          </mxGeometry>
        </mxCell>
        <mxCell id="-rIALQsXQZc5Qd0rrOYO-127" style="shape=partialRectangle;html=1;whiteSpace=wrap;connectable=0;strokeColor=inherit;overflow=hidden;fillColor=none;top=0;left=0;bottom=0;right=0;pointerEvents=1;fontSize=16;" parent="-rIALQsXQZc5Qd0rrOYO-123" vertex="1">
          <mxGeometry x="608" width="202" height="60" as="geometry">
            <mxRectangle width="202" height="60" as="alternateBounds" />
          </mxGeometry>
        </mxCell>
        <mxCell id="-rIALQsXQZc5Qd0rrOYO-128" style="shape=tableRow;horizontal=0;startSize=0;swimlaneHead=0;swimlaneBody=0;strokeColor=inherit;top=0;left=0;bottom=0;right=0;collapsible=0;dropTarget=0;fillColor=none;points=[[0,0.5],[1,0.5]];portConstraint=eastwest;fontSize=16;" parent="-rIALQsXQZc5Qd0rrOYO-91" vertex="1">
          <mxGeometry y="573" width="810" height="57" as="geometry" />
        </mxCell>
        <mxCell id="-rIALQsXQZc5Qd0rrOYO-129" style="shape=partialRectangle;html=1;whiteSpace=wrap;connectable=0;overflow=hidden;top=0;left=0;bottom=0;right=0;pointerEvents=1;fontSize=16;strokeWidth=0;fillColor=#f5f5f5;strokeColor=#666666;fontColor=#333333;" parent="-rIALQsXQZc5Qd0rrOYO-128" vertex="1">
          <mxGeometry width="195" height="57" as="geometry">
            <mxRectangle width="195" height="57" as="alternateBounds" />
          </mxGeometry>
        </mxCell>
        <mxCell id="-rIALQsXQZc5Qd0rrOYO-130" value="" style="shape=partialRectangle;html=1;whiteSpace=wrap;connectable=0;strokeColor=#666666;overflow=hidden;fillColor=#f5f5f5;top=0;left=0;bottom=0;right=0;pointerEvents=1;fontSize=16;fontColor=#333333;" parent="-rIALQsXQZc5Qd0rrOYO-128" vertex="1">
          <mxGeometry x="195" width="210" height="57" as="geometry">
            <mxRectangle width="210" height="57" as="alternateBounds" />
          </mxGeometry>
        </mxCell>
        <mxCell id="-rIALQsXQZc5Qd0rrOYO-131" style="shape=partialRectangle;html=1;whiteSpace=wrap;connectable=0;strokeColor=#666666;overflow=hidden;fillColor=#f5f5f5;top=0;left=0;bottom=0;right=0;pointerEvents=1;fontSize=16;fontColor=#333333;" parent="-rIALQsXQZc5Qd0rrOYO-128" vertex="1">
          <mxGeometry x="405" width="203" height="57" as="geometry">
            <mxRectangle width="203" height="57" as="alternateBounds" />
          </mxGeometry>
        </mxCell>
        <mxCell id="-rIALQsXQZc5Qd0rrOYO-132" style="shape=partialRectangle;html=1;whiteSpace=wrap;connectable=0;strokeColor=#666666;overflow=hidden;fillColor=#f5f5f5;top=0;left=0;bottom=0;right=0;pointerEvents=1;fontSize=16;fontColor=#333333;" parent="-rIALQsXQZc5Qd0rrOYO-128" vertex="1">
          <mxGeometry x="608" width="202" height="57" as="geometry">
            <mxRectangle width="202" height="57" as="alternateBounds" />
          </mxGeometry>
        </mxCell>
        <mxCell id="-rIALQsXQZc5Qd0rrOYO-318" value="FOOTER" style="rounded=0;whiteSpace=wrap;html=1;resizeWidth=0;" parent="1" vertex="1">
          <mxGeometry x="10" y="767" width="1150" height="60" as="geometry" />
        </mxCell>
        <mxCell id="-rIALQsXQZc5Qd0rrOYO-320" value="Filtrer affichages" style="shape=partialRectangle;whiteSpace=wrap;html=1;bottom=0;top=0;fillColor=none;" parent="1" vertex="1">
          <mxGeometry x="250" y="20" width="130" height="50" as="geometry" />
        </mxCell>
        <mxCell id="-rIALQsXQZc5Qd0rrOYO-321" value="Formulaires" style="shape=partialRectangle;whiteSpace=wrap;html=1;bottom=0;top=0;fillColor=none;" parent="1" vertex="1">
          <mxGeometry x="380" y="20" width="130" height="50" as="geometry" />
        </mxCell>
        <mxCell id="-rIALQsXQZc5Qd0rrOYO-322" value="Modifications" style="shape=partialRectangle;whiteSpace=wrap;html=1;bottom=0;top=0;fillColor=none;" parent="1" vertex="1">
          <mxGeometry x="510" y="20" width="130" height="50" as="geometry" />
        </mxCell>
        <mxCell id="-rIALQsXQZc5Qd0rrOYO-324" value="&lt;p style=&quot;line-height: 120%;&quot;&gt;Accueil&lt;/p&gt;" style="shape=partialRectangle;whiteSpace=wrap;html=1;bottom=0;top=0;fillColor=none;" parent="1" vertex="1">
          <mxGeometry x="115" y="20" width="135" height="50" as="geometry" />
        </mxCell>
      </root>
    </mxGraphModel>
  </diagram>
</mxfile>
